<mxfile host="app.diagrams.net" modified="2021-01-30T09:38:49.142Z" agent="5.0 (Macintosh; Intel Mac OS X 11_1_0) AppleWebKit/537.36 (KHTML, like Gecko) Chrome/88.0.4324.96 Safari/537.36" etag="dLyBZio7ivaX4TLwTuF1" version="14.2.9" type="github">
  <diagram id="gNy2NihPCgiiV5P9hgW1" name="Page-1">
    <mxGraphModel dx="2066" dy="1154" grid="1" gridSize="10" guides="1" tooltips="1" connect="1" arrows="1" fold="1" page="1" pageScale="1" pageWidth="827" pageHeight="1169" math="0" shadow="0">
      <root>
        <mxCell id="0" />
        <mxCell id="1" parent="0" />
        <mxCell id="yvyoPERtSHNNpU4P7Bx9-3" value="&lt;font style=&quot;font-size: 20px&quot;&gt;RocksDB&lt;/font&gt;" style="shape=cylinder;whiteSpace=wrap;html=1;boundedLbl=1;backgroundOutline=1;" parent="1" vertex="1">
          <mxGeometry x="590" y="740" width="100" height="80" as="geometry" />
        </mxCell>
        <mxCell id="yvyoPERtSHNNpU4P7Bx9-9" style="edgeStyle=orthogonalEdgeStyle;rounded=0;orthogonalLoop=1;jettySize=auto;html=1;exitX=0.5;exitY=1;exitDx=0;exitDy=0;" parent="1" source="yvyoPERtSHNNpU4P7Bx9-4" target="yvyoPERtSHNNpU4P7Bx9-7" edge="1">
          <mxGeometry relative="1" as="geometry" />
        </mxCell>
        <mxCell id="yvyoPERtSHNNpU4P7Bx9-10" style="edgeStyle=orthogonalEdgeStyle;rounded=0;orthogonalLoop=1;jettySize=auto;html=1;exitX=0.5;exitY=1;exitDx=0;exitDy=0;entryX=0.25;entryY=0;entryDx=0;entryDy=0;" parent="1" source="yvyoPERtSHNNpU4P7Bx9-4" target="yvyoPERtSHNNpU4P7Bx9-8" edge="1">
          <mxGeometry relative="1" as="geometry" />
        </mxCell>
        <mxCell id="yvyoPERtSHNNpU4P7Bx9-4" value="&lt;font style=&quot;font-size: 20px&quot;&gt;Feature-D&lt;span style=&quot;color: rgb(51 , 51 , 51) ; background-color: rgb(255 , 255 , 255)&quot;&gt;istribution&lt;/span&gt;&lt;/font&gt;" style="html=1;dashed=0;whitespace=wrap;fontSize=20;" parent="1" vertex="1">
          <mxGeometry x="340" y="100" width="200" height="80" as="geometry" />
        </mxCell>
        <mxCell id="sE1mbeIRCUfKOVioRmq--6" style="edgeStyle=orthogonalEdgeStyle;rounded=0;orthogonalLoop=1;jettySize=auto;html=1;exitX=0.5;exitY=1;exitDx=0;exitDy=0;entryX=0.75;entryY=0;entryDx=0;entryDy=0;" edge="1" parent="1" source="yvyoPERtSHNNpU4P7Bx9-5" target="yvyoPERtSHNNpU4P7Bx9-8">
          <mxGeometry relative="1" as="geometry" />
        </mxCell>
        <mxCell id="yvyoPERtSHNNpU4P7Bx9-5" value="CRM" style="html=1;dashed=0;whitespace=wrap;fontSize=20;" parent="1" vertex="1">
          <mxGeometry x="1060" y="100" width="200" height="80" as="geometry" />
        </mxCell>
        <mxCell id="sE1mbeIRCUfKOVioRmq--5" style="edgeStyle=orthogonalEdgeStyle;rounded=0;orthogonalLoop=1;jettySize=auto;html=1;exitX=0.5;exitY=1;exitDx=0;exitDy=0;entryX=0.75;entryY=0;entryDx=0;entryDy=0;" edge="1" parent="1" source="yvyoPERtSHNNpU4P7Bx9-6" target="yvyoPERtSHNNpU4P7Bx9-8">
          <mxGeometry relative="1" as="geometry">
            <Array as="points">
              <mxPoint x="940" y="308" />
              <mxPoint x="1003" y="308" />
            </Array>
          </mxGeometry>
        </mxCell>
        <mxCell id="sE1mbeIRCUfKOVioRmq--8" value="&lt;font style=&quot;font-size: 20px&quot;&gt;特征获取&lt;/font&gt;" style="edgeLabel;html=1;align=center;verticalAlign=middle;resizable=0;points=[];" vertex="1" connectable="0" parent="sE1mbeIRCUfKOVioRmq--5">
          <mxGeometry x="0.5298" y="-1" relative="1" as="geometry">
            <mxPoint as="offset" />
          </mxGeometry>
        </mxCell>
        <mxCell id="yvyoPERtSHNNpU4P7Bx9-6" value="CoarseRank" style="html=1;dashed=0;whitespace=wrap;fontSize=20;" parent="1" vertex="1">
          <mxGeometry x="840" y="100" width="200" height="80" as="geometry" />
        </mxCell>
        <mxCell id="sE1mbeIRCUfKOVioRmq--2" style="edgeStyle=orthogonalEdgeStyle;rounded=0;orthogonalLoop=1;jettySize=auto;html=1;exitX=0.25;exitY=1;exitDx=0;exitDy=0;entryX=0.5;entryY=0;entryDx=0;entryDy=0;" edge="1" parent="1" source="yvyoPERtSHNNpU4P7Bx9-7" target="yvyoPERtSHNNpU4P7Bx9-3">
          <mxGeometry relative="1" as="geometry" />
        </mxCell>
        <mxCell id="yvyoPERtSHNNpU4P7Bx9-7" value="&lt;font style=&quot;font-size: 20px&quot;&gt;Feature-Agent-Master&lt;/font&gt;" style="html=1;dashed=0;whitespace=wrap;fontSize=20;" parent="1" vertex="1">
          <mxGeometry x="340" y="430" width="200" height="70" as="geometry" />
        </mxCell>
        <mxCell id="sE1mbeIRCUfKOVioRmq--3" style="edgeStyle=orthogonalEdgeStyle;rounded=0;orthogonalLoop=1;jettySize=auto;html=1;entryX=0.5;entryY=0;entryDx=0;entryDy=0;" edge="1" parent="1" source="yvyoPERtSHNNpU4P7Bx9-8" target="yvyoPERtSHNNpU4P7Bx9-3">
          <mxGeometry relative="1" as="geometry">
            <Array as="points">
              <mxPoint x="900" y="620" />
              <mxPoint x="640" y="620" />
            </Array>
          </mxGeometry>
        </mxCell>
        <mxCell id="sE1mbeIRCUfKOVioRmq--4" value="数据持久化/数据读取" style="edgeLabel;html=1;align=center;verticalAlign=middle;resizable=0;points=[];fontSize=20;" vertex="1" connectable="0" parent="sE1mbeIRCUfKOVioRmq--3">
          <mxGeometry x="0.6973" y="2" relative="1" as="geometry">
            <mxPoint as="offset" />
          </mxGeometry>
        </mxCell>
        <mxCell id="sE1mbeIRCUfKOVioRmq--9" style="edgeStyle=orthogonalEdgeStyle;rounded=0;orthogonalLoop=1;jettySize=auto;html=1;exitX=0.75;exitY=1;exitDx=0;exitDy=0;entryX=0.25;entryY=0;entryDx=0;entryDy=0;" edge="1" parent="1" source="yvyoPERtSHNNpU4P7Bx9-8" target="yvyoPERtSHNNpU4P7Bx9-12">
          <mxGeometry relative="1" as="geometry" />
        </mxCell>
        <mxCell id="sE1mbeIRCUfKOVioRmq--10" value="&lt;font style=&quot;font-size: 20px&quot;&gt;主动方数据获取&lt;/font&gt;" style="edgeLabel;html=1;align=center;verticalAlign=middle;resizable=0;points=[];" vertex="1" connectable="0" parent="sE1mbeIRCUfKOVioRmq--9">
          <mxGeometry x="0.0194" relative="1" as="geometry">
            <mxPoint as="offset" />
          </mxGeometry>
        </mxCell>
        <mxCell id="yvyoPERtSHNNpU4P7Bx9-8" value="&lt;font style=&quot;font-size: 20px&quot;&gt;Feature-Agent&lt;/font&gt;" style="html=1;dashed=0;whitespace=wrap;fontSize=20;" parent="1" vertex="1">
          <mxGeometry x="860" y="435" width="190" height="65" as="geometry" />
        </mxCell>
        <mxCell id="yvyoPERtSHNNpU4P7Bx9-11" value="增量特征Topic" style="text;html=1;resizable=0;autosize=1;align=center;verticalAlign=middle;points=[];fillColor=none;strokeColor=none;rounded=0;fontSize=20;" parent="1" vertex="1">
          <mxGeometry x="385" y="225" width="140" height="30" as="geometry" />
        </mxCell>
        <mxCell id="yvyoPERtSHNNpU4P7Bx9-12" value="&lt;font style=&quot;font-size: 20px&quot;&gt;Feature-Service&lt;/font&gt;" style="html=1;dashed=0;whitespace=wrap;fontSize=20;" parent="1" vertex="1">
          <mxGeometry x="950" y="730" width="200" height="80" as="geometry" />
        </mxCell>
        <mxCell id="yvyoPERtSHNNpU4P7Bx9-16" value="&lt;font style=&quot;font-size: 20px&quot;&gt;HTTP请求拉取全量数据&lt;/font&gt;" style="edgeStyle=orthogonalEdgeStyle;rounded=0;orthogonalLoop=1;jettySize=auto;html=1;exitX=0.5;exitY=1;exitDx=0;exitDy=0;entryX=0.5;entryY=1;entryDx=0;entryDy=0;" parent="1" source="yvyoPERtSHNNpU4P7Bx9-13" target="yvyoPERtSHNNpU4P7Bx9-7" edge="1">
          <mxGeometry relative="1" as="geometry">
            <Array as="points">
              <mxPoint x="690" y="570" />
              <mxPoint x="440" y="570" />
            </Array>
          </mxGeometry>
        </mxCell>
        <mxCell id="yvyoPERtSHNNpU4P7Bx9-13" value="&lt;font style=&quot;font-size: 20px&quot;&gt;Feature-Agent-Worker&lt;/font&gt;" style="html=1;dashed=0;whitespace=wrap;fontSize=20;" parent="1" vertex="1">
          <mxGeometry x="590" y="430" width="200" height="70" as="geometry" />
        </mxCell>
      </root>
    </mxGraphModel>
  </diagram>
</mxfile>
